<?xml version="1.0" standalone="no"?><!DOCTYPE svg PUBLIC "-//W3C//DTD SVG 1.1//EN" "http://www.w3.org/Graphics/SVG/1.1/DTD/svg11.dtd"><svg t="1680361578924" class="icon" viewBox="0 0 1024 1024" version="1.1" xmlns="http://www.w3.org/2000/svg" p-id="3077" xmlns:xlink="http://www.w3.org/1999/xlink" width="200" height="200"><path d="M512 0c282.752 0 512 229.248 512 512a42.666667 42.666667 0 1 1-85.333333 0c0-235.648-191.018667-426.666667-426.666667-426.666667S85.333333 276.352 85.333333 512a426.794667 426.794667 0 0 0 387.626667 424.917333 42.666667 42.666667 0 1 1-7.68 84.992c-13.952-1.28-27.733333-3.114667-41.429333-5.461333C180.266667 974.08 0 761.941333 0 512 0 229.248 229.248 0 512 0z" fill="#515151" p-id="3078"></path><path d="M512 128a213.333333 213.333333 0 1 0 0 426.666667 213.333333 213.333333 0 0 0 0-426.666667z m0 85.333333a128 128 0 1 1 0 256 128 128 0 0 1 0-256zM500.693333 597.333333a42.666667 42.666667 0 0 1 4.992 85.034667l-4.992 0.298667H418.133333a192.042667 192.042667 0 0 0-190.122666 164.906666 42.666667 42.666667 0 0 1-84.48-11.946666 277.376 277.376 0 0 1 264.234666-238.08L418.133333 597.333333h82.56z" fill="#515151" p-id="3079"></path><path d="M746.666667 810.666667m-64 0a64 64 0 1 0 128 0 64 64 0 1 0-128 0Z" fill="#515151" p-id="3080"></path><path d="M867.626667 597.333333h-241.92L505.728 810.666667l119.978667 213.333333h241.92l119.978666-213.333333-119.978666-213.333334z m-49.92 85.333334l71.978666 128-72.021333 128H675.626667L603.605333 810.666667l71.978667-128h142.122667z" fill="#515151" p-id="3081"></path></svg>